<svg xmlns="http://www.w3.org/2000/svg" viewBox="0 0 420 260"><path d="M24 170H396" stroke="#d8e6dc" stroke-width="2"/><rect x="70" y="196" width="165" height="10" rx="5" fill="#b4d7bf"/><rect x="254" y="210" width="89" height="10" rx="5" fill="#b4d7bf"/><path d="M44 170V83" stroke="#d8e6dc" stroke-width="2"/><circle cx="44" cy="83" r="7" fill="#5cad82"/><path d="M71 170V89" stroke="#d8e6dc" stroke-width="2"/><circle cx="71" cy="89" r="6" fill="#5cad82"/><path d="M115 170V74" stroke="#d8e6dc" stroke-width="2"/><circle cx="115" cy="74" r="9" fill="#5cad82"/><path d="M149 170V57" stroke="#d8e6dc" stroke-width="2"/><circle cx="149" cy="57" r="9" fill="#b4d7bf"/><path d="M188 170V131" stroke="#d8e6dc" stroke-width="2"/><circle cx="188" cy="131" r="9" fill="#b4d7bf"/><path d="M227 170V86" stroke="#d8e6dc" stroke-width="2"/><circle cx="227" cy="86" r="7" fill="#b4d7bf"/><path d="M258 170V126" stroke="#d8e6dc" stroke-width="2"/><circle cx="258" cy="126" r="6" fill="#b4d7bf"/><path d="M298 170V134" stroke="#d8e6dc" stroke-width="2"/><circle cx="298" cy="134" r="9" fill="#b4d7bf"/><path d="M341 170V136" stroke="#d8e6dc" stroke-width="2"/><circle cx="341" cy="136" r="9" fill="#5cad82"/><path d="M370 170V102" stroke="#d8e6dc" stroke-width="2"/><circle cx="370" cy="102" r="7" fill="#b4d7bf"/><circle cx="373" cy="170" r="8" fill="#08785c"/></svg>
