<svg xmlns="http://www.w3.org/2000/svg" viewBox="0 0 420 260"><circle cx="140.0" cy="236.0" r="6" fill="#08785c"/><circle cx="118.0" cy="236.0" r="6" fill="#08785c"/><circle cx="96.0" cy="236.0" r="6" fill="#08785c"/><circle cx="74.0" cy="236.0" r="6" fill="#08785c"/><circle cx="52.0" cy="236.0" r="6" fill="#08785c"/><circle cx="30.0" cy="236.0" r="6" fill="#08785c"/><circle cx="30.6" cy="221.1" r="6" fill="#08785c"/><circle cx="52.7" cy="221.0" r="6" fill="#08785c"/><circle cx="74.9" cy="220.8" r="6" fill="#08785c"/><circle cx="97.1" cy="220.5" r="6" fill="#08785c"/><circle cx="32.5" cy="206.4" r="6" fill="#08785c"/><circle cx="119.4" cy="220.0" r="6" fill="#08785c"/><circle cx="54.9" cy="206.1" r="6" fill="#08785c"/><circle cx="77.4" cy="205.7" r="6" fill="#08785c"/><circle cx="142.0" cy="219.2" r="6" fill="#08785c"/><circle cx="35.5" cy="191.8" r="6" fill="#08785c"/><circle cx="100.2" cy="205.2" r="6" fill="#08785c"/><circle cx="58.4" cy="191.5" r="6" fill="#08785c"/><circle cx="39.8" cy="177.6" r="6" fill="#08785c"/><circle cx="81.6" cy="191.1" r="6" fill="#08785c"/><circle cx="123.5" cy="204.5" r="6" fill="#08785c"/><circle cx="63.3" cy="177.3" r="6" fill="#08785c"/><circle cx="105.4" cy="190.6" r="6" fill="#08785c"/><circle cx="45.2" cy="163.7" r="6" fill="#08785c"/><circle cx="87.5" cy="177.0" r="6" fill="#08785c"/><circle cx="69.6" cy="163.6" r="6" fill="#08785c"/><circle cx="148.0" cy="203.5" r="6" fill="#08785c"/><circle cx="51.7" cy="150.3" r="6" fill="#08785c"/><circle cx="130.3" cy="190.0" r="6" fill="#08785c"/><circle cx="112.6" cy="176.8" r="6" fill="#08785c"/><circle cx="94.8" cy="163.6" r="6" fill="#08785c"/><circle cx="77.1" cy="150.6" r="6" fill="#08785c"/><circle cx="59.3" cy="137.5" r="6" fill="#08785c"/><circle cx="68.0" cy="125.4" r="6" fill="#08785c"/><circle cx="85.8" cy="138.3" r="6" fill="#08785c"/><circle cx="103.7" cy="151.2" r="6" fill="#08785c"/><circle cx="121.6" cy="164.1" r="6" fill="#08785c"/><circle cx="139.5" cy="176.9" r="6" fill="#08785c"/><circle cx="157.6" cy="189.6" r="6" fill="#08785c"/><circle cx="77.6" cy="114.1" r="6" fill="#5cad82"/><circle cx="95.7" cy="127.0" r="6" fill="#5cad82"/><circle cx="113.8" cy="139.8" r="6" fill="#5cad82"/><circle cx="132.2" cy="152.7" r="6" fill="#5cad82"/><circle cx="88.1" cy="103.6" r="6" fill="#5cad82"/><circle cx="106.5" cy="116.6" r="6" fill="#5cad82"/><circle cx="150.9" cy="165.5" r="6" fill="#5cad82"/><circle cx="125.2" cy="129.7" r="6" fill="#5cad82"/><circle cx="99.4" cy="94.0" r="6" fill="#5cad82"/><circle cx="118.4" cy="107.3" r="6" fill="#5cad82"/><circle cx="144.3" cy="142.9" r="6" fill="#5cad82"/><circle cx="170.2" cy="178.4" r="6" fill="#5cad82"/><circle cx="111.5" cy="85.3" r="6" fill="#5cad82"/><circle cx="137.6" cy="120.8" r="6" fill="#5cad82"/><circle cx="164.0" cy="156.3" r="6" fill="#5cad82"/><circle cx="131.0" cy="99.2" r="6" fill="#5cad82"/><circle cx="124.3" cy="77.7" r="6" fill="#5cad82"/><circle cx="157.6" cy="134.8" r="6" fill="#5cad82"/><circle cx="151.0" cy="113.5" r="6" fill="#5cad82"/><circle cx="144.4" cy="92.3" r="6" fill="#5cad82"/><circle cx="137.7" cy="71.2" r="6" fill="#5cad82"/><circle cx="185.2" cy="170.5" r="6" fill="#5cad82"/><circle cx="178.5" cy="149.5" r="6" fill="#b4d7bf"/><circle cx="171.8" cy="128.6" r="6" fill="#b4d7bf"/><circle cx="165.1" cy="107.6" r="6" fill="#b4d7bf"/><circle cx="158.3" cy="86.7" r="6" fill="#b4d7bf"/><circle cx="151.6" cy="65.8" r="6" fill="#b4d7bf"/><circle cx="165.8" cy="61.5" r="6" fill="#b4d7bf"/><circle cx="172.8" cy="82.5" r="6" fill="#b4d7bf"/><circle cx="179.7" cy="103.4" r="6" fill="#b4d7bf"/><circle cx="186.8" cy="124.4" r="6" fill="#b4d7bf"/><circle cx="194.0" cy="145.4" r="6" fill="#d3ddd8"/><circle cx="180.4" cy="58.5" r="6" fill="#d3ddd8"/><circle cx="187.5" cy="79.6" r="6" fill="#d3ddd8"/><circle cx="201.6" cy="166.5" r="6" fill="#d3ddd8"/><circle cx="194.8" cy="100.9" r="6" fill="#d3ddd8"/><circle cx="195.1" cy="56.6" r="6" fill="#d3ddd8"/><circle cx="202.2" cy="122.3" r="6" fill="#d3ddd8"/><circle cx="202.5" cy="78.2" r="6" fill="#d3ddd8"/><circle cx="210.0" cy="144.0" r="6" fill="#d3ddd8"/><circle cx="210.0" cy="100.0" r="6" fill="#d3ddd8"/><circle cx="210.0" cy="56.0" r="6" fill="#d3ddd8"/><circle cx="217.5" cy="78.2" r="6" fill="#d3ddd8"/><circle cx="217.8" cy="122.3" r="6" fill="#d3ddd8"/><circle cx="224.9" cy="56.6" r="6" fill="#d3ddd8"/><circle cx="225.2" cy="100.9" r="6" fill="#d3ddd8"/><circle cx="218.4" cy="166.5" r="6" fill="#d3ddd8"/><circle cx="232.5" cy="79.6" r="6" fill="#d3ddd8"/><circle cx="239.6" cy="58.5" r="6" fill="#d3ddd8"/><circle cx="226.0" cy="145.4" r="6" fill="#d3ddd8"/><circle cx="233.2" cy="124.4" r="6" fill="#d3ddd8"/><circle cx="240.3" cy="103.4" r="6" fill="#d3ddd8"/><circle cx="247.2" cy="82.5" r="6" fill="#d3ddd8"/><circle cx="254.2" cy="61.5" r="6" fill="#d3ddd8"/><circle cx="268.4" cy="65.8" r="6" fill="#d3ddd8"/><circle cx="261.7" cy="86.7" r="6" fill="#d3ddd8"/><circle cx="254.9" cy="107.6" r="6" fill="#d3ddd8"/><circle cx="248.2" cy="128.6" r="6" fill="#d3ddd8"/><circle cx="241.5" cy="149.5" r="6" fill="#d3ddd8"/><circle cx="234.8" cy="170.5" r="6" fill="#d3ddd8"/><circle cx="282.3" cy="71.2" r="6" fill="#d3ddd8"/><circle cx="275.6" cy="92.3" r="6" fill="#d3ddd8"/><circle cx="269.0" cy="113.5" r="6" fill="#d3ddd8"/><circle cx="262.4" cy="134.8" r="6" fill="#d3ddd8"/><circle cx="295.7" cy="77.7" r="6" fill="#9fcdb3"/><circle cx="289.0" cy="99.2" r="6" fill="#9fcdb3"/><circle cx="256.0" cy="156.3" r="6" fill="#9fcdb3"/><circle cx="282.4" cy="120.8" r="6" fill="#9fcdb3"/><circle cx="308.5" cy="85.3" r="6" fill="#9fcdb3"/><circle cx="249.8" cy="178.4" r="6" fill="#9fcdb3"/><circle cx="275.7" cy="142.9" r="6" fill="#9fcdb3"/><circle cx="301.6" cy="107.3" r="6" fill="#9fcdb3"/><circle cx="320.6" cy="94.0" r="6" fill="#9fcdb3"/><circle cx="294.8" cy="129.7" r="6" fill="#9fcdb3"/><circle cx="269.1" cy="165.5" r="6" fill="#9fcdb3"/><circle cx="313.5" cy="116.6" r="6" fill="#9fcdb3"/><circle cx="331.9" cy="103.6" r="6" fill="#9fcdb3"/><circle cx="287.8" cy="152.7" r="6" fill="#9fcdb3"/><circle cx="306.2" cy="139.8" r="6" fill="#9fcdb3"/><circle cx="324.3" cy="127.0" r="6" fill="#9fcdb3"/><circle cx="342.4" cy="114.1" r="6" fill="#9fcdb3"/><circle cx="262.4" cy="189.6" r="6" fill="#9fcdb3"/><circle cx="280.5" cy="176.9" r="6" fill="#9fcdb3"/><circle cx="298.4" cy="164.1" r="6" fill="#9fcdb3"/><circle cx="316.3" cy="151.2" r="6" fill="#9fcdb3"/><circle cx="334.2" cy="138.3" r="6" fill="#9fcdb3"/><circle cx="352.0" cy="125.4" r="6" fill="#9fcdb3"/><circle cx="360.7" cy="137.5" r="6" fill="#9fcdb3"/><circle cx="342.9" cy="150.6" r="6" fill="#9fcdb3"/><circle cx="325.2" cy="163.6" r="6" fill="#9fcdb3"/><circle cx="307.4" cy="176.8" r="6" fill="#9fcdb3"/><circle cx="289.7" cy="190.0" r="6" fill="#9fcdb3"/><circle cx="368.3" cy="150.3" r="6" fill="#9fcdb3"/><circle cx="272.0" cy="203.5" r="6" fill="#9fcdb3"/><circle cx="350.4" cy="163.6" r="6" fill="#9fcdb3"/><circle cx="332.5" cy="177.0" r="6" fill="#9fcdb3"/><circle cx="374.8" cy="163.7" r="6" fill="#9fcdb3"/><circle cx="314.6" cy="190.6" r="6" fill="#9fcdb3"/><circle cx="356.7" cy="177.3" r="6" fill="#9fcdb3"/><circle cx="296.5" cy="204.5" r="6" fill="#9fcdb3"/><circle cx="338.4" cy="191.1" r="6" fill="#9fcdb3"/><circle cx="380.2" cy="177.6" r="6" fill="#9fcdb3"/><circle cx="361.6" cy="191.5" r="6" fill="#9fcdb3"/><circle cx="319.8" cy="205.2" r="6" fill="#9fcdb3"/><circle cx="384.5" cy="191.8" r="6" fill="#9fcdb3"/><circle cx="278.0" cy="219.2" r="6" fill="#9fcdb3"/><circle cx="342.6" cy="205.7" r="6" fill="#9fcdb3"/><circle cx="365.1" cy="206.1" r="6" fill="#9fcdb3"/><circle cx="300.6" cy="220.0" r="6" fill="#9fcdb3"/><circle cx="387.5" cy="206.4" r="6" fill="#9fcdb3"/><circle cx="322.9" cy="220.5" r="6" fill="#9fcdb3"/><circle cx="345.1" cy="220.8" r="6" fill="#9fcdb3"/><circle cx="367.3" cy="221.0" r="6" fill="#9fcdb3"/><circle cx="389.4" cy="221.1" r="6" fill="#9fcdb3"/><circle cx="390.0" cy="236.0" r="6" fill="#9fcdb3"/><circle cx="368.0" cy="236.0" r="6" fill="#9fcdb3"/><circle cx="346.0" cy="236.0" r="6" fill="#9fcdb3"/><circle cx="324.0" cy="236.0" r="6" fill="#9fcdb3"/><circle cx="302.0" cy="236.0" r="6" fill="#9fcdb3"/><circle cx="280.0" cy="236.0" r="6" fill="#9fcdb3"/></svg>
